<svg width="477" height="146" viewBox="0 0 477 146" fill="none" xmlns="http://www.w3.org/2000/svg">
<path d="M316.993 26.9917C317.883 27.0251 322.831 27.1268 326.856 23.4158C331.287 19.3308 331.03 13.9169 330.98 13.1505C330.968 12.3173 330.792 6.91967 326.138 3.11584C322.383 0.0460613 318.121 -0.016023 316.993 0.00171534C315.767 0.00745422 311.677 0.174925 308.027 3.11584C303.193 7.01149 303.018 12.6413 303.007 13.4964C302.976 14.3437 302.889 19.1226 306.772 23.012C310.861 27.1075 316.16 27.0188 316.993 26.9911V26.9917Z" fill="#02A388"/>
<path d="M0 89.542C14.9354 92.1245 26.1711 93.0148 33.7462 93.3358C37.4881 93.494 46.9044 93.7913 47.639 91.096C47.8682 90.2552 47.2239 89.2283 47.0554 88.9595C45.6685 86.7487 42.5578 86.3807 41.5717 86.2569C34.5907 85.3818 17.002 83.1768 9.45798 77.888C6.14547 75.566 2.12102 70.7927 0.817565 59.7075C0.854535 56.6749 1.3531 51.5131 4.55418 46.7715C12.4055 35.1418 30.4295 35.0558 41.9182 35.001C47.535 34.9741 56.0159 35.4723 66.2048 38.264V60.4065C63.8224 59.571 60.2125 58.4677 55.6964 57.726C54.7774 57.5752 54.2846 57.5151 44.1369 56.7935C44.1369 56.7935 39.0266 56.4303 31.7778 56.561C31.7778 56.561 29.4075 56.6037 25.9218 57.726C23.4797 58.5119 23.1765 59.019 23.1195 59.3575C22.8961 60.6838 25.9957 62.1645 26.3887 62.3485C28.1875 63.1908 29.5734 63.2493 31.7599 63.514C33.9152 63.7744 36.0357 64.2715 38.1816 64.6015C42.4754 65.2614 47.0491 66.1565 49.2742 66.6989C53.9915 67.8492 62.5121 69.9271 67.0219 76.8379C68.1664 78.5917 70.3893 82.705 69.9409 89.4244C70.1046 91.707 70.0761 95.9288 67.8394 100.263C64.6553 106.433 58.9402 109.062 54.7621 110.984C49.6074 113.356 45.2492 113.94 41.2179 114.48C35.4986 115.247 31.2132 115.022 25.3382 114.713C20.4692 114.458 16.693 113.989 9.82874 113.136C5.78686 112.634 2.41414 112.157 0.00105629 111.8V89.5404L0 89.542Z" fill="#02A388"/>
<path d="M245.281 16H269.121V37.7428H291.559V59.4855H269.277L269.355 77.9553C269.925 79.807 271.029 85.8168 276.926 89.7359C285.457 95.4046 294.83 92.3818 296 91.9831V114.155C292.847 114.813 277.414 117.496 263.278 107.881C249.301 98.3741 246.289 83.2492 245.281 78.189C244.648 75.0123 245.281 16 245.281 16H245.281Z" fill="#02A388"/>
<path d="M330 35H305V115H330V35Z" fill="#02A388"/>
<path d="M400.985 82.4504C400.968 80.3453 400.664 69.5386 391.829 60.8813C382.376 51.6195 370.461 51.9733 368.517 52.063C366.467 51.9221 355.551 51.374 346.29 59.4511C336.076 68.3581 336.025 80.6442 336.049 82.4498C335.933 84.1811 335.33 96.2296 344.965 105.568C354.627 114.933 366.838 114.063 368.578 113.91C370.363 113.99 383.867 114.369 393.395 103.661C401.128 94.9714 401.061 84.7999 400.985 82.4498V82.4504ZM368.5 97.0617C360.648 97.0617 354.283 90.766 354.283 83C354.283 75.2339 360.648 68.9383 368.5 68.9383C376.351 68.9383 382.716 75.2339 382.716 83C382.716 90.766 376.351 97.0617 368.5 97.0617Z" fill="#02A388"/>
<path d="M470.986 82.4504C470.969 80.3453 470.67 69.5386 461.971 60.8813C452.664 51.6195 440.932 51.9733 439.018 52.063C436.998 51.9221 426.251 51.374 417.132 59.4511C407.076 68.3581 407.026 80.6442 407.049 82.4498C406.934 84.1811 406.341 96.2296 415.827 105.568C425.34 114.933 437.363 114.063 439.076 113.91C440.834 113.99 454.131 114.369 463.512 103.661C471.126 94.9714 471.061 84.7999 470.985 82.4498L470.986 82.4504ZM439.001 97.0617C431.27 97.0617 425.003 90.766 425.003 83C425.003 75.2339 431.27 68.9383 439.001 68.9383C446.731 68.9383 452.998 75.2339 452.998 83C452.998 90.766 446.731 97.0617 439.001 97.0617Z" fill="#02A388"/>
<path d="M243.11 101.26C239.601 84.6347 242.818 79.743 239.781 67.9661C238.553 63.2045 235.344 50.7645 224.119 42.49C214.316 35.2635 203.605 35.3757 199.059 35.0381C196.559 34.8522 180.693 34.947 169.642 45.1291C156.413 57.3174 156.919 73.7685 157.034 76.0237C156.976 78.0577 156.766 96.1014 171.353 107.384C180.987 114.835 191.548 115.064 195.013 114.992C198.678 114.915 204.179 114.967 210.111 111.731C214.858 109.142 217.765 105.659 219.294 103.503C220.077 105.763 220.855 108.04 221.629 110.334C222.154 111.892 222.674 113.444 223.186 114.992H247C245.899 111.921 244.359 107.18 243.11 101.26ZM196.696 93.3196C186.553 93.3196 178.33 85.1177 178.33 75.0003C178.33 64.883 186.553 56.6811 196.696 56.6811C206.84 56.6811 215.063 64.883 215.063 75.0003C215.063 85.1177 206.84 93.3196 196.696 93.3196Z" fill="#02A388"/>
<path d="M154.974 74.0379C154.983 71.4999 154.794 56.6971 142.955 45.1121C130.82 33.2366 115.809 33.9084 113.371 34.0589C110.653 33.9302 95.7563 33.4967 83.7872 45.1121C74.5968 54.0314 72.5311 64.816 72 68.3938V146H95.575V106.962C97.8446 108.754 101.398 111.136 106.206 112.841C111.39 114.679 115.944 114.99 118.918 114.957C121.613 114.767 134.823 113.548 145.035 102.023C155.339 90.3938 155.08 76.7488 154.974 74.0379ZM114.579 92.9563C104.537 92.9563 96.3972 84.6736 96.3972 74.4565C96.3972 64.2394 104.537 55.9567 114.579 55.9567C124.62 55.9567 132.76 64.2394 132.76 74.4565C132.76 84.6736 124.62 92.9563 114.579 92.9563Z" fill="#02A388"/>
<path d="M472.688 44.1333C464.942 31.5269 448.821 28.6357 438.886 26.8072C435.974 26.2713 433.505 26.0092 431.737 25.8699C428.309 16.2834 423.118 11.0665 420.003 8.48557C399.939 -8.13575 369.309 4.53 365.919 5.98832C359.265 8.85148 354.295 12.3554 351.078 14.94C346.503 12.8732 341.928 10.8065 337.354 8.73974L342.172 25.8699C341.074 27.6264 339.582 30.202 338.101 33.4602C337.476 34.8348 334.966 40.6353 333.749 47.9766C331.803 59.7216 334.098 69.9541 335.538 75C336.264 72.2041 339.197 62.312 348.922 55.6733C357.048 50.1265 365.243 50.0429 368.582 50.054C372.029 50.0656 382.012 50.5888 391.116 57.8587C395.597 61.4362 398.302 65.3997 399.819 68.0436H408.289C409.291 65.6766 411.074 62.2839 414.246 59.0925C422.94 50.3431 434.792 50.4268 438.643 50.4538C442.667 50.4824 453.111 50.7143 462.217 58.6C469.081 64.5445 471.65 71.7757 472.581 75C474 72.7453 476.02 68.8845 476.767 63.7417C476.932 62.6027 478.165 53.049 472.687 44.1328L472.688 44.1333ZM392.341 27.3727H353.774C356.842 24.2083 362.623 19.0565 371.36 15.5097C380.161 11.937 387.937 11.6262 392.341 11.7718V27.3727H392.341ZM397.965 27.3727V11.7723C400.174 11.8237 405.803 12.25 411.457 16.1346C417.21 20.088 419.642 25.324 420.47 27.3733H397.965V27.3727Z" fill="#02A388"/>
</svg>
