<svg width="477" height="138" viewBox="0 0 477 138" fill="none" xmlns="http://www.w3.org/2000/svg">
<path d="M0 84.3818C14.1378 86.8434 24.7736 87.6921 31.9443 87.9981C35.4863 88.1488 44.3998 88.4322 45.0952 85.8631C45.3122 85.0617 44.7023 84.0829 44.5428 83.8266C43.2299 81.7193 40.2853 81.3685 39.3519 81.2505C32.7437 80.4164 16.0941 78.3145 8.95295 73.2733C5.81732 71.0599 2.00776 66.51 0.773909 55.9436C0.808905 53.0529 1.28085 48.1327 4.31099 43.613C11.7431 32.5276 28.8046 32.4457 39.6798 32.3934C44.9967 32.3678 53.0248 32.8426 62.6696 35.5037V56.6099C60.4144 55.8135 56.9973 54.7618 52.7223 54.0548C51.8524 53.9111 51.386 53.8538 41.7801 53.166C41.7801 53.166 36.9427 52.8198 30.081 52.9444C30.081 52.9444 27.8372 52.9851 24.5376 54.0548C22.2259 54.804 21.9389 55.2874 21.8849 55.61C21.6735 56.8742 24.6076 58.2856 24.9796 58.461C26.6824 59.2639 27.9942 59.3197 30.064 59.5719C32.1042 59.8202 34.1115 60.294 36.1428 60.6085C40.2073 61.2376 44.5368 62.0908 46.643 62.6079C51.1085 63.7042 59.1741 65.685 63.4431 72.2723C64.5264 73.9441 66.6307 77.8648 66.2062 84.2698C66.3612 86.4455 66.3342 90.4697 64.217 94.601C61.2028 100.482 55.7929 102.989 51.8379 104.821C46.9585 107.081 42.833 107.638 39.0169 108.153C33.6031 108.884 29.5465 108.669 23.9852 108.375C19.3762 108.132 15.8016 107.684 9.30391 106.872C5.47786 106.393 2.28523 105.938 0.000999883 105.598V84.3803L0 84.3818Z" fill="#02A388"/>
<path d="M231.938 14.5653H254.486V35.2273H275.708V55.8893H254.634L254.707 73.4411C255.247 75.2007 256.291 80.9118 261.868 84.6361C269.936 90.023 278.801 87.1504 279.908 86.7716V107.841C276.926 108.467 262.33 111.017 248.96 101.879C235.741 92.8449 232.892 78.4718 231.939 73.6632C231.34 70.6443 231.939 14.5653 231.939 14.5653H231.938Z" fill="#02A388"/>
<path d="M311.731 33.1054H288.52V108.644H311.731V33.1054Z" fill="#02A388"/>
<path d="M300.125 25.996C300.948 26.0281 305.522 26.1261 309.244 22.5521C313.341 18.6177 313.103 13.4036 313.057 12.6655C313.045 11.863 312.883 6.66451 308.58 3.00101C305.109 0.0444841 301.168 -0.0153098 300.125 0.00177413C298.992 0.00730129 295.21 0.168594 291.836 3.00101C287.366 6.75294 287.204 12.1751 287.194 12.9986C287.166 13.8146 287.085 18.4172 290.675 22.1632C294.456 26.1075 299.355 26.0221 300.125 25.9955V25.996Z" fill="#02A388"/>
<path d="M395.044 70.3056C395.023 67.6888 394.652 54.2573 383.844 43.4969C372.281 31.9849 357.706 32.4245 355.328 32.5366C352.819 32.3612 339.467 31.6804 328.138 41.7197C315.644 52.7906 315.583 68.0616 315.611 70.3056C315.468 72.4577 314.732 87.4333 326.517 99.0398C338.336 110.68 353.272 109.599 355.401 109.408C357.584 109.507 374.105 109.979 385.76 96.6697C395.219 85.8681 395.138 73.226 395.044 70.3051V70.3056ZM355.306 88.4669C345.702 88.4669 337.917 80.6419 337.917 70.9895C337.917 61.3371 345.702 53.5121 355.306 53.5121C364.91 53.5121 372.696 61.3371 372.696 70.9895C372.696 80.6419 364.91 88.4669 355.306 88.4669Z" fill="#02A388"/>
<path d="M476.981 69.7987C476.961 67.1818 476.59 53.7503 465.781 42.99C454.219 31.4779 439.643 31.9176 437.265 32.0296C434.756 31.8543 421.404 31.1734 410.075 41.2127C397.582 52.2836 397.52 67.5547 397.549 69.7992C397.406 71.9513 396.669 86.9268 408.454 98.5334C420.273 110.174 435.21 109.092 437.339 108.901C439.522 109.001 456.041 109.472 467.697 96.1632C477.156 85.3616 477.075 72.7195 476.981 69.7987ZM437.244 87.9599C427.64 87.9599 419.855 80.135 419.855 70.4825C419.855 60.8301 427.64 53.0052 437.244 53.0052C446.848 53.0052 454.634 60.8301 454.634 70.4825C454.634 80.135 446.848 87.9599 437.244 87.9599Z" fill="#02A388"/>
<path d="M230.287 95.5361C226.964 79.6747 230.01 75.0078 227.135 63.7721C225.972 59.2293 222.934 47.361 212.307 39.4667C203.025 32.5723 192.884 32.6793 188.58 32.3572C186.213 32.1799 171.19 32.2703 160.727 41.9845C148.203 53.6127 148.682 69.3078 148.79 71.4593C148.735 73.3999 148.537 90.6145 162.348 101.379C171.469 108.487 181.468 108.706 184.748 108.637C188.218 108.563 193.427 108.613 199.043 105.526C203.538 103.056 206.291 99.7333 207.738 97.6762C208.479 99.8317 209.216 102.004 209.949 104.193C210.446 105.679 210.938 107.16 211.423 108.637H233.97C232.928 105.707 231.47 101.184 230.287 95.5361ZM186.343 87.9599C176.739 87.9599 168.953 80.135 168.953 70.4825C168.953 60.8301 176.739 53.0052 186.343 53.0052C195.946 53.0052 203.732 60.8301 203.732 70.4825C203.732 80.135 195.946 87.9599 186.343 87.9599Z" fill="#02A388"/>
<path d="M147.177 70.0152C147.186 67.6174 147.005 53.6327 135.682 42.6879C124.075 31.4688 109.718 32.1034 107.387 32.2456C104.787 32.124 90.5393 31.7145 79.0917 42.6879C70.3017 51.1143 68.3259 61.3029 67.818 64.683V138H90.3658V101.12C92.5366 102.813 95.9352 105.063 100.534 106.674C105.492 108.41 109.847 108.704 112.692 108.673C115.27 108.494 127.904 107.342 137.671 96.4536C147.526 85.4671 147.278 72.5763 147.177 70.0152ZM108.542 87.8885C98.9378 87.8885 91.1523 80.0636 91.1523 70.4112C91.1523 60.7587 98.9378 52.9338 108.542 52.9338C118.146 52.9338 125.931 60.7587 125.931 70.4112C125.931 80.0636 118.146 87.8885 108.542 87.8885Z" fill="#02A388"/>
</svg>
