<svg width="158" height="125" viewBox="0 0 158 125" fill="none" xmlns="http://www.w3.org/2000/svg">
<path d="M151.536 90.5147C151.518 88.2137 151.189 76.4016 141.619 66.9387C131.38 56.815 118.475 57.2018 116.368 57.2997C114.147 57.1456 102.324 56.5464 92.2922 65.3753C81.2293 75.111 81.1747 88.5408 81.2003 90.5141C81.0738 92.4064 80.4212 105.576 90.857 115.783C101.322 126.019 114.549 125.069 116.434 124.901C118.367 124.989 132.995 125.403 143.315 113.699C151.691 104.2 151.619 93.0827 151.536 90.5141V90.5147ZM116.35 106.486C107.846 106.486 100.951 99.6048 100.951 91.1157C100.951 82.6267 107.845 75.7456 116.35 75.7456C124.854 75.7456 131.748 82.6267 131.748 91.1157C131.748 99.6048 124.854 106.486 116.35 106.486Z" fill="#01E979"/>
<path d="M74.6011 90.5147C74.5825 88.2137 74.2536 76.4016 64.6833 66.9387C54.4447 56.815 41.5388 57.2018 39.4325 57.2997C37.2108 57.1456 25.3885 56.5464 15.3564 65.3753C4.29348 75.111 4.23895 88.5408 4.26448 90.5141C4.13802 92.407 3.48541 105.576 13.9213 115.783C24.3867 126.02 37.6128 125.069 39.498 124.901C41.4315 124.989 56.0591 125.403 66.3801 113.699C74.756 104.201 74.6841 93.0827 74.6011 90.5141V90.5147ZM39.4145 106.486C30.9104 106.486 24.016 99.6048 24.016 91.1157C24.016 82.6267 30.9098 75.7456 39.4145 75.7456C47.9192 75.7456 54.813 82.6267 54.813 91.1157C54.813 99.6048 47.9192 106.486 39.4145 106.486Z" fill="#01E979"/>
<path d="M153.281 48.0988C144.786 34.3592 127.107 31.2087 116.212 29.2157C113.019 28.6315 110.311 28.346 108.372 28.1943C104.613 17.7464 98.9204 12.0604 95.5042 9.24813C73.502 -8.8666 39.9106 4.93672 36.1946 6.52614C28.8976 9.6465 23.4471 13.4657 19.9184 16.2821C14.9017 14.0297 9.8851 11.7773 4.86847 9.5249L10.1519 28.1943C8.94825 30.1086 7.31124 32.9157 5.68756 36.4668C5.13125 37.6834 2.32361 44.0706 0.91573 52.2875C-1.24105 64.8719 0.897167 75.973 2.36422 81.7389C3.25234 78.6116 6.71896 67.8782 17.5551 60.6752C26.6451 54.6325 35.7096 54.5393 39.1147 54.5509C42.8952 54.5636 53.8427 55.1339 63.8272 63.0567C68.7406 66.9558 71.7072 71.2754 73.3714 74.1572H82.6599C83.7585 71.5776 85.7146 67.88 89.1917 64.4018C98.7261 54.8659 111.724 54.9573 115.947 54.9869C120.213 55.017 131.696 55.2712 141.799 63.865C149.407 70.3362 152.321 78.2097 153.388 81.7389C154.89 79.2456 156.993 75.0332 157.754 69.4694C157.948 68.0519 159.217 57.6996 153.281 48.0982V48.0988ZM65.1678 29.833H22.8739C26.2384 26.3843 32.5777 20.7695 42.1596 16.904C51.8106 13.0106 60.3379 12.6713 65.1678 12.8305V29.833ZM71.3359 29.833V12.83C73.7584 12.8861 79.9311 13.3505 86.1311 17.5843C92.4408 21.8934 95.1074 27.5991 96.0159 29.833H71.3353H71.3359Z" fill="#01E979"/>
</svg>
